<svg xmlns="http://www.w3.org/2000/svg" version="1.1" xmlns:xlink="http://www.w3.org/1999/xlink" xmlns:svgjs="http://svgjs.com/svgjs" width="1440" height="560" preserveAspectRatio="none" viewBox="0 0 1440 560"><g clip-path="url(&quot;#SvgjsClipPath1000&quot;)" fill="none"><rect width="1440" height="560" x="0" y="0" fill="#0e2a47"></rect><circle r="93.335" cx="56.26" cy="21.65" stroke="#365aa3" stroke-opacity="0.25" stroke-width="2"></circle><circle r="93.335" cx="454.28" cy="427.17" stroke="#365aa3" stroke-opacity="0.25" stroke-width="2"></circle><circle r="93.335" cx="839.83" cy="807.75" stroke="#365aa3" stroke-opacity="0.25" stroke-width="2"></circle><circle r="129.285" cx="637.51" cy="44.58" stroke="#365aa3" stroke-opacity="0.25" stroke-width="2"></circle><circle r="153.775" cx="383.77" cy="501.88" stroke="#365aa3" stroke-opacity="0.25" stroke-width="2"></circle><circle r="70.715" cx="874.26" cy="284.69" stroke="#365aa3" stroke-opacity="0.25" stroke-width="2"></circle><circle r="72.125" cx="148.84" cy="30.51" stroke="#365aa3" stroke-opacity="0.25" stroke-width="2"></circle><circle r="169.54" cx="1253.65" cy="342.9" stroke="#365aa3" stroke-opacity="0.25" stroke-width="2"></circle><circle r="66.205" cx="1254.81" cy="354.73" stroke="#365aa3" stroke-opacity="0.25" stroke-width="2"></circle><circle r="98.565" cx="331.24" cy="487.04" stroke="#365aa3" stroke-opacity="0.25" stroke-width="2"></circle><circle r="63.125" cx="895.72" cy="56.88" stroke="#365aa3" stroke-opacity="0.25" stroke-width="2"></circle><circle r="91.005" cx="391.02" cy="489.65" stroke="#365aa3" stroke-opacity="0.25" stroke-width="2"></circle><circle r="181" cx="823.98" cy="427.45" stroke="#365aa3" stroke-opacity="0.25" stroke-width="2"></circle><circle r="162.495" cx="1380.55" cy="258.33" stroke="#365aa3" stroke-opacity="0.25" stroke-width="2"></circle><circle r="107.32" cx="1057.31" cy="7.32" stroke="#365aa3" stroke-opacity="0.25" stroke-width="2"></circle><circle r="131.28" cx="791.38" cy="274.98" stroke="#365aa3" stroke-opacity="0.25" stroke-width="2"></circle><circle r="162.87" cx="651.63" cy="136.31" stroke="#365aa3" stroke-opacity="0.25" stroke-width="2"></circle><circle r="82.87" cx="900.34" cy="338.74" stroke="#365aa3" stroke-opacity="0.25" stroke-width="2"></circle><circle r="86.405" cx="257.14" cy="361.64" stroke="#365aa3" stroke-opacity="0.25" stroke-width="2"></circle><circle r="71.595" cx="1401.48" cy="416.25" stroke="#365aa3" stroke-opacity="0.25" stroke-width="2"></circle><circle r="125.715" cx="192.93" cy="193.81" stroke="#365aa3" stroke-opacity="0.25" stroke-width="2"></circle><circle r="167.995" cx="474.18" cy="235.13" stroke="#365aa3" stroke-opacity="0.25" stroke-width="2"></circle><circle r="149.735" cx="569.66" cy="325.58" stroke="#365aa3" stroke-opacity="0.25" stroke-width="2"></circle><circle r="75.405" cx="1087.26" cy="501.87" stroke="#365aa3" stroke-opacity="0.25" stroke-width="2"></circle><circle r="174.545" cx="279.63" cy="473.47" stroke="#365aa3" stroke-opacity="0.25" stroke-width="2"></circle><circle r="152.625" cx="715.7" cy="116.53" stroke="#365aa3" stroke-opacity="0.25" stroke-width="2"></circle><circle r="90.325" cx="357.42" cy="108.78" stroke="#365aa3" stroke-opacity="0.25" stroke-width="2"></circle><circle r="165.98" cx="36.16" cy="436.38" stroke="#365aa3" stroke-opacity="0.25" stroke-width="2"></circle><circle r="104.42" cx="931.47" cy="419.59" stroke="#365aa3" stroke-opacity="0.25" stroke-width="2"></circle><circle r="132.315" cx="509.95" cy="32.16" stroke="#365aa3" stroke-opacity="0.25" stroke-width="2"></circle><circle r="101.91" cx="1020.35" cy="89.63" stroke="#365aa3" stroke-opacity="0.25" stroke-width="2"></circle><circle r="63.205" cx="508.38" cy="219.78" stroke="#365aa3" stroke-opacity="0.25" stroke-width="2"></circle><circle r="170.94" cx="1242.63" cy="41.25" stroke="#365aa3" stroke-opacity="0.25" stroke-width="2"></circle><circle r="171.885" cx="634.51" cy="111.58" stroke="#365aa3" stroke-opacity="0.25" stroke-width="2"></circle><circle r="115.41" cx="1074.81" cy="80.73" stroke="#365aa3" stroke-opacity="0.25" stroke-width="2"></circle><circle r="126.73" cx="452.06" cy="463.12" stroke="#365aa3" stroke-opacity="0.25" stroke-width="2"></circle><circle r="110.075" cx="120.47" cy="435.53" stroke="#365aa3" stroke-opacity="0.25" stroke-width="2"></circle><circle r="160.095" cx="843.9" cy="410.92" stroke="#365aa3" stroke-opacity="0.25" stroke-width="2"></circle><circle r="48.765" cx="1267.08" cy="16.07" stroke="#365aa3" stroke-opacity="0.25" stroke-width="2"></circle><circle r="130.345" cx="1229.29" cy="155.08" stroke="#365aa3" stroke-opacity="0.25" stroke-width="2"></circle></g><defs><clipPath id="SvgjsClipPath1000"><rect width="1440" height="560" x="0" y="0"></rect></clipPath></defs></svg>